<?xml version="1.0" standalone="no"?>
<!DOCTYPE svg PUBLIC "-//W3C//DTD SVG 20010904//EN"
 "http://www.w3.org/TR/2001/REC-SVG-20010904/DTD/svg10.dtd">
<svg version="1.0" xmlns="http://www.w3.org/2000/svg"
 width="512.000000pt" height="512.000000pt" viewBox="0 0 512.000000 512.000000"
 preserveAspectRatio="xMidYMid meet">
<metadata>
Created by potrace 1.14, written by Peter Selinger 2001-2017
</metadata>
<g transform="translate(0.000000,512.000000) scale(0.100000,-0.100000)"
fill="#000000" stroke="none">
<path d="M1397 4804 c-1 -1 -38 -4 -82 -7 -44 -3 -105 -11 -135 -17 -30 -6
-66 -14 -80 -16 -57 -11 -233 -75 -301 -110 -425 -214 -711 -607 -784 -1079
-23 -150 -10 -431 26 -542 5 -17 12 -44 15 -58 18 -100 143 -351 209 -421 5
-6 42 -46 80 -89 39 -43 84 -93 100 -111 27 -29 179 -194 230 -250 27 -30 229
-244 305 -324 288 -304 885 -885 1106 -1077 51 -44 159 -139 174 -153 8 -8 45
-40 80 -70 36 -30 67 -57 70 -60 35 -38 127 -100 149 -100 23 0 63 20 81 39 3
3 48 42 100 86 52 44 102 87 110 95 9 8 50 44 90 80 41 36 97 85 124 110 28
25 56 50 62 55 193 171 783 750 1024 1005 185 196 291 310 318 340 16 19 52
58 78 86 49 50 165 177 283 308 140 156 247 412 279 666 8 72 9 290 0 360 -12
95 -39 210 -70 295 -76 214 -191 394 -358 556 -69 67 -183 157 -230 181 -14 7
-27 16 -30 19 -23 29 -307 144 -405 164 -206 42 -434 48 -585 13 -25 -5 -58
-12 -75 -15 -40 -6 -135 -38 -215 -71 -175 -72 -316 -167 -462 -313 l-118
-117 -107 107 c-123 122 -209 189 -326 252 -149 80 -281 127 -437 158 -59 11
-285 31 -293 25z"/>
</g>
</svg>
